<?xml version="1.0" encoding="UTF-8"?>
<svg version="1.1" xmlns="http://www.w3.org/2000/svg" width="549" height="466">
<path d="M0 0 C181.17 0 362.34 0 549 0 C549 153.78 549 307.56 549 466 C367.83 466 186.66 466 0 466 C0 312.22 0 158.44 0 0 Z " fill="#000000" transform="translate(0,0)"/>
<path d="M0 0 C0.78072372 -0.00014603 1.56144745 -0.00029205 2.36582947 -0.0004425 C4.94679542 0.00025425 7.52768923 0.00803557 10.10864258 0.01586914 C11.89797425 0.01773416 13.68730643 0.01915767 15.47663879 0.02015686 C20.18664967 0.02397541 24.89662972 0.03380006 29.60662842 0.04486084 C34.4126341 0.05508918 39.21864477 0.05965754 44.0246582 0.06469727 C53.45501029 0.0754229 62.8853395 0.0924914 72.31567383 0.11352539 C72.31567383 0.77352539 72.31567383 1.43352539 72.31567383 2.11352539 C70.66564555 3.46739475 68.99823513 4.80030682 67.31567383 6.11352539 C65.39401366 9.95684574 65.65110931 13.94121595 66.31567383 18.11352539 C69.76660931 25.94214934 75.98858174 32.7001042 81.20532227 39.43652344 C85.01884683 44.36801055 88.68486893 49.37720204 92.25317383 54.48852539 C101.28234714 67.40981621 110.72899789 80.0232735 120.20068359 92.62207031 C125.3126045 99.42738472 130.3046205 106.31598322 135.27270508 113.22680664 C141.10331477 121.32956171 146.98236257 129.38578765 153.00390625 137.34790039 C155.78570536 141.03671786 158.49844263 144.76169575 161.14819336 148.54638672 C176.30936055 170.17467346 196.13781027 192.25936877 220.99926758 202.71118164 C224.31567383 204.11352539 224.31567383 204.11352539 227.50317383 206.11352539 C232.33894694 208.9972433 237.86870503 209.93290161 243.31567383 211.11352539 C243.31567383 211.77352539 243.31567383 212.43352539 243.31567383 213.11352539 C243.97567383 213.44352539 244.63567383 213.77352539 245.31567383 214.11352539 C202.41567383 214.11352539 159.51567383 214.11352539 115.31567383 214.11352539 C119.31567383 210.11352539 119.31567383 210.11352539 122.12817383 207.86352539 C124.68302044 205.22935275 124.68302044 205.22935275 124.35473633 201.51196289 C123.47872362 196.00667071 120.25918242 192.26481663 116.87817383 187.98852539 C115.58694012 186.29908514 114.29657987 184.60897696 113.00708008 182.91821289 C112.37302246 182.09675781 111.73896484 181.27530273 111.08569336 180.42895508 C108.75202296 177.37619231 106.52505238 174.25674086 104.31567383 171.11352539 C98.65003954 163.12144003 92.8098128 155.25823823 86.98803711 147.37963867 C84.58969209 144.12979364 82.20190471 140.8722704 79.81567383 137.61352539 C76.87762779 133.60161783 73.9340084 129.59397404 70.97973633 125.59399414 C65.21987299 117.79444646 59.480916 109.98215722 53.81567383 102.11352539 C47.65065569 93.55198873 41.40005883 85.05544783 35.13012695 76.57055664 C31.3629497 71.46925525 27.60508442 66.36108307 23.84521484 61.25439453 C23.29534912 60.50794678 22.7454834 59.76149902 22.17895508 58.99243164 C21.69724854 58.33831299 21.21554199 57.68419434 20.71923828 57.01025391 C19.25999172 55.03827852 17.78758126 53.07606863 16.31567383 51.11352539 C15.98567383 73.22352539 15.65567383 95.33352539 15.31567383 118.11352539 C21.58567383 118.11352539 27.85567383 118.11352539 34.31567383 118.11352539 C50.17135587 122.0774459 63.54360745 128.6013585 72.50317383 142.86352539 C75.59341789 148.33936995 78.47310583 154.09080313 80.31567383 160.11352539 C79.98567383 161.10352539 79.65567383 162.09352539 79.31567383 163.11352539 C79.01274414 162.4496582 78.70981445 161.78579102 78.39770508 161.10180664 C75.92847452 155.8974284 73.73183957 151.92748671 69.31567383 148.11352539 C68.66727539 147.48704102 68.01887695 146.86055664 67.35083008 146.21508789 C62.10746064 141.25738533 56.94895637 137.91991416 50.31567383 135.11352539 C49.65567383 134.79383789 48.99567383 134.47415039 48.31567383 134.14477539 C40.53060369 130.86044893 28.28183602 130.45813799 20.31567383 133.11352539 C20.31567383 133.77352539 20.31567383 134.43352539 20.31567383 135.11352539 C22.62567383 135.11352539 24.93567383 135.11352539 27.31567383 135.11352539 C27.31567383 135.77352539 27.31567383 136.43352539 27.31567383 137.11352539 C28.26442383 137.15477539 29.21317383 137.19602539 30.19067383 137.23852539 C39.09889989 138.55226378 46.80309878 145.35041248 52.31567383 152.11352539 C58.28893763 161.25119681 59.28188716 171.42626335 58.31567383 182.11352539 C56.78436824 188.45186758 54.27755392 193.91355778 50.31567383 199.11352539 C49.65567383 200.00040039 48.99567383 200.88727539 48.31567383 201.80102539 C46.44069547 203.96896911 44.73195463 205.58321422 42.31567383 207.11352539 C41.65567383 207.11352539 40.99567383 207.11352539 40.31567383 207.11352539 C40.31567383 207.77352539 40.31567383 208.43352539 40.31567383 209.11352539 C38.33567383 209.44352539 36.35567383 209.77352539 34.31567383 210.11352539 C34.31567383 210.77352539 34.31567383 211.43352539 34.31567383 212.11352539 C23.037258 215.82333456 10.47576445 215.8265935 -0.27026367 210.52758789 C-10.87360326 204.31657021 -17.30632905 193.74083688 -20.68432617 182.11352539 C-20.94159508 178.75545597 -20.94159508 178.75545597 -20.95175171 175.02320862 C-20.95628282 174.33290068 -20.96081393 173.64259274 -20.96548235 172.93136638 C-20.97808793 170.63077021 -20.97650852 168.33041193 -20.97485352 166.02978516 C-20.98084108 164.37525123 -20.98764715 162.7207201 -20.99520874 161.06619263 C-21.01285038 156.58066879 -21.01756328 152.09522129 -21.01884031 147.60966611 C-21.02026323 144.8057935 -21.02453545 142.00194023 -21.02983475 139.19807243 C-21.04832725 129.41230921 -21.05650612 119.62660043 -21.05493164 109.84082031 C-21.05372967 100.7248741 -21.07484483 91.60916443 -21.10641897 82.49327809 C-21.13258068 74.66040483 -21.14329902 66.82760887 -21.14202082 58.99469227 C-21.14151126 54.3191619 -21.14719148 49.64384194 -21.16837692 44.96835518 C-21.18775818 40.57122553 -21.18788466 36.17450708 -21.17334366 31.77736282 C-21.17125448 30.16612204 -21.17596299 28.55485552 -21.18806458 26.94365883 C-21.20354856 24.7389005 -21.1941902 22.53555466 -21.17880249 20.33082581 C-21.18043679 18.48279783 -21.18043679 18.48279783 -21.18210411 16.59743595 C-20.42051233 11.26711204 -17.96638095 6.59831442 -13.62182617 3.23852539 C-9.08089576 -0.04640299 -5.39361404 -0.02630169 0 0 Z " fill="#FCFCFC" transform="translate(207.684326171875,115.886474609375)"/>
<path d="M0 0 C0.66 0.33 1.32 0.66 2 1 C3.67617338 1.09508581 5.35613557 1.12630266 7.03500366 1.12698364 C8.63335304 1.13121338 8.63335304 1.13121338 10.26399231 1.13552856 C11.43806137 1.13350433 12.61213043 1.1314801 13.82177734 1.12939453 C15.67063286 1.13202301 15.67063286 1.13202301 17.55683899 1.13470459 C20.94326618 1.13835952 24.32963252 1.13749148 27.71605635 1.1343255 C31.25761467 1.13179782 34.79917034 1.13414069 38.34072876 1.13571167 C44.29095935 1.13753264 50.24117754 1.13512944 56.19140625 1.13037109 C63.0703094 1.1249336 69.94918288 1.12668768 76.8280853 1.1321975 C82.73132658 1.13673664 88.63455893 1.13737509 94.53780138 1.13475883 C98.06464856 1.13319983 101.59148181 1.13299189 105.11832809 1.13629532 C109.05204163 1.13972217 112.98572202 1.13497115 116.91943359 1.12939453 C118.08945419 1.13141876 119.25947479 1.13344299 120.46495056 1.13552856 C121.53615646 1.13270874 122.60736237 1.12988892 123.71102905 1.12698364 C124.64128592 1.12660662 125.57154278 1.12622959 126.52998924 1.12584114 C128.9801262 1.08389478 128.9801262 1.08389478 131.20556068 0.42956352 C133 0 133 0 135 1 C135 1.66 135 2.32 135 3 C89.79 3 44.58 3 -2 3 C-2 2.34 -2 1.68 -2 1 C-1.34 0.67 -0.68 0.34 0 0 Z " fill="#535353" transform="translate(322,328)"/>
<path d="M0 0 C26.73 0 53.46 0 81 0 C81 4 81 4 78.625 6.75 C76 9 76 9 74 9 C75.04874998 6.37812506 75.64931313 5.20628639 78.125 3.75 C78.74375 3.5025 79.3625 3.255 80 3 C80 2.34 80 1.68 80 1 C53.6 1 27.2 1 0 1 C0 0.67 0 0.34 0 0 Z " fill="#303030" transform="translate(200,115)"/>
<path d="M0 0 C3.57011026 3.732388 4.10913442 8.0949989 5 13 C2.12614955 9.57874946 0.54115394 6.16111563 -1 2 C-0.67 1.34 -0.34 0.68 0 0 Z " fill="#A7A7A7" transform="translate(283,266)"/>
<path d="M0 0 C0.66 0.33 1.32 0.66 2 1 C-1.625 5.875 -1.625 5.875 -5 7 C-3.70700306 4.11562221 -2.34058637 2.12780579 0 0 Z " fill="#B3B3B3" transform="translate(195,118)"/>
</svg>
